<svg xmlns="http://www.w3.org/2000/svg" viewBox="0 0 180 180">
  <defs>
    <linearGradient id="bgGrad" x1="0%" y1="0%" x2="100%" y2="100%">
      <stop offset="0%" style="stop-color:#667eea;stop-opacity:1" />
      <stop offset="100%" style="stop-color:#764ba2;stop-opacity:1" />
    </linearGradient>
  </defs>

  <!-- Background -->
  <rect width="180" height="180" rx="40" fill="url(#bgGrad)"/>

  <!-- Grid pattern (subtle) -->
  <g opacity="0.2">
    <rect x="20" y="20" width="45" height="45" rx="8" fill="white"/>
    <rect x="75" y="20" width="45" height="45" rx="8" fill="white"/>
    <rect x="130" y="20" width="30" height="45" rx="8" fill="white"/>
    <rect x="20" y="75" width="45" height="45" rx="8" fill="white"/>
    <rect x="75" y="75" width="45" height="45" rx="8" fill="white"/>
    <rect x="20" y="130" width="45" height="30" rx="8" fill="white"/>
  </g>

  <!-- Code symbol -->
  <g fill="none" stroke="white" stroke-width="12" stroke-linecap="round" stroke-linejoin="round">
    <path d="M 60 55 L 50 55 Q 42 55 42 63 L 42 117 Q 42 125 50 125 L 60 125"/>
    <path d="M 120 55 L 130 55 Q 138 55 138 63 L 138 117 Q 138 125 130 125 L 120 125"/>
    <line x1="82" y1="135" x2="98" y2="45" stroke-width="12"/>
  </g>
</svg>
