<svg xmlns="http://www.w3.org/2000/svg" viewBox="0 0 512 512" width="512" height="512">
  <defs>
    <linearGradient id="bgGradient" x1="0%" y1="0%" x2="100%" y2="100%">
      <stop offset="0%" style="stop-color:#667eea;stop-opacity:1" />
      <stop offset="100%" style="stop-color:#764ba2;stop-opacity:1" />
    </linearGradient>
    <linearGradient id="iconGradient" x1="0%" y1="0%" x2="100%" y2="100%">
      <stop offset="0%" style="stop-color:#f093fb;stop-opacity:1" />
      <stop offset="100%" style="stop-color:#f5576c;stop-opacity:1" />
    </linearGradient>
  </defs>

  <!-- Background rounded square -->
  <rect x="0" y="0" width="512" height="512" rx="110" fill="url(#bgGradient)"/>

  <!-- Grid pattern representing projects -->
  <g opacity="0.3">
    <rect x="80" y="80" width="130" height="130" rx="20" fill="white"/>
    <rect x="230" y="80" width="130" height="130" rx="20" fill="white"/>
    <rect x="380" y="80" width="50" height="130" rx="20" fill="white"/>
    <rect x="80" y="230" width="130" height="130" rx="20" fill="white"/>
    <rect x="230" y="230" width="130" height="130" rx="20" fill="white"/>
    <rect x="80" y="380" width="130" height="50" rx="20" fill="white"/>
  </g>

  <!-- Code brackets symbol -->
  <g fill="white" stroke="white" stroke-width="8" stroke-linecap="round" stroke-linejoin="round">
    <!-- Left bracket -->
    <path d="M 180 180 L 150 180 Q 130 180 130 200 L 130 312 Q 130 332 150 332 L 180 332"
          fill="none" stroke-width="24"/>

    <!-- Right bracket -->
    <path d="M 332 180 L 362 180 Q 382 180 382 200 L 382 312 Q 382 332 362 332 L 332 332"
          fill="none" stroke-width="24"/>

    <!-- Forward slash in the middle -->
    <line x1="240" y1="360" x2="272" y2="152" stroke-width="24"/>
  </g>

  <!-- Accent dot (representing a project/page) -->
  <circle cx="410" cy="410" r="35" fill="url(#iconGradient)"/>
</svg>
